<svg width="112" height="112" viewBox="0 0 112 112" fill="none" xmlns="http://www.w3.org/2000/svg">
<rect width="112" height="112" rx="16" fill="#46FFF4" fill-opacity="0.2"/>
<path d="M71.6606 30.6324H29.5659C26.976 30.6324 24.8887 32.7267 24.8887 35.3251V76.4341C24.8887 79.0325 26.976 81.1267 29.5659 81.1267H71.6606C79.6621 81.1267 86.1947 74.6113 86.1947 66.5447V45.2145C86.1561 37.1478 79.6621 30.6324 71.6606 30.6324ZM76.1445 61.1539C73.2454 61.1539 70.8875 58.7882 70.8875 55.8796C70.8875 52.9709 73.2454 50.6052 76.1445 50.6052C79.0436 50.6052 81.4015 52.9709 81.4015 55.8796C81.4015 58.7882 79.0436 61.1539 76.1445 61.1539Z" fill="#46FFF4"/>
</svg>
